<mxfile host="app.diagrams.net" modified="2023-02-03T03:08:28.168Z" agent="5.0 (Windows NT 10.0; Win64; x64) AppleWebKit/537.36 (KHTML, like Gecko) Chrome/103.0.0.0 Safari/537.36" etag="gbRIUFCu2qtVloVYZw4w" version="20.1.1" type="github">
  <diagram id="y0--PmYRZLF_4WQcv4hg" name="Page-1">
    <mxGraphModel dx="1379" dy="809" grid="1" gridSize="10" guides="1" tooltips="1" connect="1" arrows="1" fold="1" page="1" pageScale="1" pageWidth="827" pageHeight="1169" math="0" shadow="0">
      <root>
        <mxCell id="0" />
        <mxCell id="1" parent="0" />
        <mxCell id="QHsOfcdFZfll0Q693vu5-31" value="" style="rounded=0;whiteSpace=wrap;html=1;" parent="1" vertex="1">
          <mxGeometry x="30" y="191.5" width="1040" height="437" as="geometry" />
        </mxCell>
        <mxCell id="BuZoJlM9uJHSmox5TlZ8-13" value="" style="rounded=1;whiteSpace=wrap;html=1;fillColor=#f8cecc;strokeColor=#b85450;" vertex="1" parent="1">
          <mxGeometry x="120" y="200" width="760" height="110" as="geometry" />
        </mxCell>
        <mxCell id="BuZoJlM9uJHSmox5TlZ8-6" value="" style="rounded=1;whiteSpace=wrap;html=1;fillColor=#f8cecc;strokeColor=#b85450;" vertex="1" parent="1">
          <mxGeometry x="120" y="325" width="760" height="175" as="geometry" />
        </mxCell>
        <mxCell id="BuZoJlM9uJHSmox5TlZ8-10" style="edgeStyle=orthogonalEdgeStyle;rounded=0;orthogonalLoop=1;jettySize=auto;html=1;exitX=0.5;exitY=1;exitDx=0;exitDy=0;entryX=0.5;entryY=0;entryDx=0;entryDy=0;" edge="1" parent="1" source="QHsOfcdFZfll0Q693vu5-2" target="BuZoJlM9uJHSmox5TlZ8-4">
          <mxGeometry relative="1" as="geometry" />
        </mxCell>
        <mxCell id="QHsOfcdFZfll0Q693vu5-2" value="ckafka" style="rounded=1;whiteSpace=wrap;html=1;" parent="1" vertex="1">
          <mxGeometry x="140" y="340" width="440" height="60" as="geometry" />
        </mxCell>
        <mxCell id="QHsOfcdFZfll0Q693vu5-3" value="" style="rounded=1;whiteSpace=wrap;html=1;dashed=1;" parent="1" vertex="1">
          <mxGeometry x="140" y="210" width="440" height="80" as="geometry" />
        </mxCell>
        <mxCell id="QHsOfcdFZfll0Q693vu5-4" value="自然神评" style="rounded=1;whiteSpace=wrap;html=1;" parent="1" vertex="1">
          <mxGeometry x="210" y="222.5" width="84" height="55" as="geometry" />
        </mxCell>
        <mxCell id="QHsOfcdFZfll0Q693vu5-6" value="发布、删除、仅自己可见、人工神评等" style="rounded=1;whiteSpace=wrap;html=1;" parent="1" vertex="1">
          <mxGeometry x="470" y="222.5" width="84" height="55" as="geometry" />
        </mxCell>
        <mxCell id="QHsOfcdFZfll0Q693vu5-7" value="审核回调" style="rounded=1;whiteSpace=wrap;html=1;" parent="1" vertex="1">
          <mxGeometry x="340" y="222.5" width="84" height="55" as="geometry" />
        </mxCell>
        <mxCell id="QHsOfcdFZfll0Q693vu5-12" value="" style="rounded=1;whiteSpace=wrap;html=1;fillColor=#f8cecc;strokeColor=#b85450;" parent="1" vertex="1">
          <mxGeometry x="120" y="525" width="770" height="85" as="geometry" />
        </mxCell>
        <mxCell id="QHsOfcdFZfll0Q693vu5-13" value="es" style="shape=cylinder3;whiteSpace=wrap;html=1;boundedLbl=1;backgroundOutline=1;size=15;" parent="1" vertex="1">
          <mxGeometry x="730" y="531" width="50" height="73" as="geometry" />
        </mxCell>
        <mxCell id="QHsOfcdFZfll0Q693vu5-15" value="MDB 分表" style="shape=cylinder3;whiteSpace=wrap;html=1;boundedLbl=1;backgroundOutline=1;size=15;" parent="1" vertex="1">
          <mxGeometry x="270" y="531" width="50" height="73" as="geometry" />
        </mxCell>
        <mxCell id="QHsOfcdFZfll0Q693vu5-16" value="" style="rounded=1;whiteSpace=wrap;html=1;dashed=1;" parent="1" vertex="1">
          <mxGeometry x="640" y="205" width="230" height="90" as="geometry" />
        </mxCell>
        <mxCell id="QHsOfcdFZfll0Q693vu5-18" value="查询" style="rounded=1;whiteSpace=wrap;html=1;" parent="1" vertex="1">
          <mxGeometry x="770" y="222.5" width="84" height="55" as="geometry" />
        </mxCell>
        <mxCell id="QHsOfcdFZfll0Q693vu5-19" value="操作" style="rounded=1;whiteSpace=wrap;html=1;" parent="1" vertex="1">
          <mxGeometry x="660" y="222.5" width="84" height="55" as="geometry" />
        </mxCell>
        <mxCell id="QHsOfcdFZfll0Q693vu5-23" value="" style="rounded=1;whiteSpace=wrap;html=1;fillColor=#f8cecc;strokeColor=#b85450;" parent="1" vertex="1">
          <mxGeometry x="910" y="210" width="120" height="400" as="geometry" />
        </mxCell>
        <mxCell id="QHsOfcdFZfll0Q693vu5-24" value="可观测性" style="text;html=1;strokeColor=none;fillColor=none;align=center;verticalAlign=middle;whiteSpace=wrap;rounded=0;" parent="1" vertex="1">
          <mxGeometry x="945" y="222.5" width="60" height="30" as="geometry" />
        </mxCell>
        <mxCell id="QHsOfcdFZfll0Q693vu5-26" value="kibana" style="rounded=1;whiteSpace=wrap;html=1;" parent="1" vertex="1">
          <mxGeometry x="933" y="260" width="84" height="55" as="geometry" />
        </mxCell>
        <mxCell id="QHsOfcdFZfll0Q693vu5-27" value="007监控告警" style="rounded=1;whiteSpace=wrap;html=1;" parent="1" vertex="1">
          <mxGeometry x="933" y="330" width="84" height="55" as="geometry" />
        </mxCell>
        <mxCell id="QHsOfcdFZfll0Q693vu5-28" value="天机阁2.0" style="rounded=1;whiteSpace=wrap;html=1;" parent="1" vertex="1">
          <mxGeometry x="933" y="400" width="84" height="55" as="geometry" />
        </mxCell>
        <mxCell id="QHsOfcdFZfll0Q693vu5-29" value="logext链路插件" style="rounded=1;whiteSpace=wrap;html=1;" parent="1" vertex="1">
          <mxGeometry x="933" y="476" width="84" height="55" as="geometry" />
        </mxCell>
        <mxCell id="QHsOfcdFZfll0Q693vu5-37" value="腾讯云es监控告警" style="rounded=1;whiteSpace=wrap;html=1;" parent="1" vertex="1">
          <mxGeometry x="933" y="540" width="84" height="55" as="geometry" />
        </mxCell>
        <mxCell id="BuZoJlM9uJHSmox5TlZ8-1" value="API" style="text;html=1;strokeColor=none;fillColor=none;align=center;verticalAlign=middle;whiteSpace=wrap;rounded=0;" vertex="1" parent="1">
          <mxGeometry x="40" y="236.5" width="60" height="30" as="geometry" />
        </mxCell>
        <mxCell id="BuZoJlM9uJHSmox5TlZ8-2" value="业务层" style="text;html=1;strokeColor=none;fillColor=none;align=center;verticalAlign=middle;whiteSpace=wrap;rounded=0;" vertex="1" parent="1">
          <mxGeometry x="50" y="371.5" width="60" height="30" as="geometry" />
        </mxCell>
        <mxCell id="BuZoJlM9uJHSmox5TlZ8-3" value="存储层" style="text;html=1;strokeColor=none;fillColor=none;align=center;verticalAlign=middle;whiteSpace=wrap;rounded=0;" vertex="1" parent="1">
          <mxGeometry x="50" y="552.5" width="60" height="30" as="geometry" />
        </mxCell>
        <mxCell id="BuZoJlM9uJHSmox5TlZ8-12" value="" style="rounded=1;whiteSpace=wrap;html=1;dashed=1;" vertex="1" parent="1">
          <mxGeometry x="600" y="356.5" width="270" height="110" as="geometry" />
        </mxCell>
        <mxCell id="BuZoJlM9uJHSmox5TlZ8-7" value="worker" style="rounded=1;whiteSpace=wrap;html=1;" vertex="1" parent="1">
          <mxGeometry x="170" y="440" width="90" height="40" as="geometry" />
        </mxCell>
        <mxCell id="BuZoJlM9uJHSmox5TlZ8-11" value="业务操作" style="rounded=1;whiteSpace=wrap;html=1;" vertex="1" parent="1">
          <mxGeometry x="610" y="385" width="120" height="60" as="geometry" />
        </mxCell>
        <mxCell id="QHsOfcdFZfll0Q693vu5-34" value="查询条件组合" style="rounded=1;whiteSpace=wrap;html=1;" parent="1" vertex="1">
          <mxGeometry x="744" y="385" width="120" height="60" as="geometry" />
        </mxCell>
        <mxCell id="BuZoJlM9uJHSmox5TlZ8-14" value="" style="rounded=1;whiteSpace=wrap;html=1;dashed=1;" vertex="1" parent="1">
          <mxGeometry x="130" y="326.5" width="450" height="170" as="geometry" />
        </mxCell>
        <mxCell id="BuZoJlM9uJHSmox5TlZ8-15" value="ckafka" style="rounded=1;whiteSpace=wrap;html=1;" vertex="1" parent="1">
          <mxGeometry x="152" y="337" width="410" height="60" as="geometry" />
        </mxCell>
        <mxCell id="BuZoJlM9uJHSmox5TlZ8-16" value="worker" style="rounded=1;whiteSpace=wrap;html=1;" vertex="1" parent="1">
          <mxGeometry x="170" y="440" width="90" height="40" as="geometry" />
        </mxCell>
        <mxCell id="BuZoJlM9uJHSmox5TlZ8-8" value="worker" style="rounded=1;whiteSpace=wrap;html=1;" vertex="1" parent="1">
          <mxGeometry x="320" y="440" width="90" height="40" as="geometry" />
        </mxCell>
        <mxCell id="BuZoJlM9uJHSmox5TlZ8-4" value="" style="rounded=1;whiteSpace=wrap;html=1;dashed=1;" vertex="1" parent="1">
          <mxGeometry x="152" y="427" width="410" height="60" as="geometry" />
        </mxCell>
        <mxCell id="BuZoJlM9uJHSmox5TlZ8-9" value="worker" style="rounded=1;whiteSpace=wrap;html=1;" vertex="1" parent="1">
          <mxGeometry x="452" y="437" width="90" height="40" as="geometry" />
        </mxCell>
        <mxCell id="BuZoJlM9uJHSmox5TlZ8-17" value="worker" style="rounded=1;whiteSpace=wrap;html=1;" vertex="1" parent="1">
          <mxGeometry x="172" y="437" width="90" height="40" as="geometry" />
        </mxCell>
        <mxCell id="BuZoJlM9uJHSmox5TlZ8-18" value="worker" style="rounded=1;whiteSpace=wrap;html=1;" vertex="1" parent="1">
          <mxGeometry x="316" y="437" width="90" height="40" as="geometry" />
        </mxCell>
      </root>
    </mxGraphModel>
  </diagram>
</mxfile>
